<?xml version="1.0" encoding="utf-8"?>
<?xml-stylesheet type="text/xsl" href="rss1.xsl"?>
<rss version="2.0" xmlns:atom="http://www.w3.org/2005/Atom" xmlns:content="http://purl.org/rss/1.0/modules/content/" xmlns:dc="http://purl.org/dc/elements/1.1/" xmlns:media="http://search.yahoo.com/mrss/">
<channel>
 <title>Getty</title>
 <link>http://www.gettyimg.com/</link>
 <atom:link href="http://www.gettyimg.com/" rel="self" type="application/rss+xml" />

 
                <item>
                <title><![CDATA[【Apple Music】WEB-RiP - Ciara - Dance Like We're Making Love (1080p)]]></title>
                <link><![CDATA[https://sharemania.us/threads/ciara-dance-like-were-making-love-1080p.227627/]]></link>
                <description><![CDATA[<article>
<blockquote class="messageText SelectQuoteContainer ugc baseHtml">
<img src="https://i.imgur.com/L4k13nD.jpg" class="bbCodeImage LbImage" alt="[​IMG]" data-url="https://i.imgur.com/L4k13nD.jpg" style=""><br>
<br>
<div class="bbCodeBlock bbCodeCode">
<div class="type">Code:</div>
<pre>General
Complete name                  : C:\Users\asus\Desktop\Ciara - Dance Like We're Making Love.mp4
Format                         : MPEG-4
Format profile                 : Base Media
Codec ID                       : isom (isom/iso2/avc1/mp41)
File size                      : 219 MiB
Duration                       : 4 min 28 s
Overall bit rate               : 6 855 kb/s
Frame rate                     : 23.976 FPS
Movie name                     : Dance Like We're Making Love
Performer                      : Ciara
Genre                          : Pop
ContentType                    : Music Video
Recorded date                  : 2015-07-16 07:00:00 UTC
Writing application            : Lavf57.29.101
Copyright                      : ℗ (C) 2015 Epic Records, a division of Sony Music Entertainment

Video
ID                             : 1
Format                         : AVC
Format/Info                    : Advanced Video Codec
Format profile                 : High@L4
Format settings                : CABAC / 4 Ref Frames
Format settings, CABAC         : Yes
Format settings, Reference fra : 4 frames
Codec ID                       : avc1
Codec ID/Info                  : Advanced Video Coding
Duration                       : 4 min 28 s
Bit rate                       : 6 597 kb/s
Width                          : 1 920 pixels
Height                         : 1 080 pixels
Display aspect ratio           : 16:9
Frame rate mode                : Constant
Frame rate                     : 23.976 (24000/1001) FPS
Color space                    : YUV
Chroma subsampling             : 4:2:0
Bit depth                      : 8 bits
Scan type                      : Progressive
Bits/(Pixel*Frame)             : 0.133
Stream size                    : 211 MiB (96%)
Color range                    : Limited
Color primaries                : BT.709
Transfer characteristics       : BT.709
Matrix coefficients            : BT.709
Codec configuration box        : avcC

Audio
ID                             : 2
Format                         : AAC LC
Format/Info                    : Advanced Audio Codec Low Complexity
Codec ID                       : mp4a-40-2
Duration                       : 4 min 28 s
Bit rate mode                  : Constant
Bit rate                       : 254 kb/s
Channel(s)                     : 2 channels
Channel layout                 : L R
Sampling rate                  : 48.0 kHz
Frame rate                     : 46.875 FPS (1024 SPF)
Compression mode               : Lossy
Stream size                    : 8.12 MiB (4%)
Default                        : Yes
Alternate group                : 1

</pre>
</div>
<div class="bbCodeBlock bbCodeVfcHH HiddenContent">
<div class="attribution type">Hidden Content:</div>
<blockquote>You must either reply or click 'Like' to see the hidden information contained here.</blockquote>
</div>
<div class="messageTextEndMarker">&nbsp;</div>
</blockquote>
</article>]]></description>
                <author><![CDATA[vitalya3]]></author>
                </item>

                
                <item>
                <title><![CDATA[【Apple Music】WEB-RiP - Ava Max - Torn (1080p)]]></title>
                <link><![CDATA[https://sharemania.us/threads/ava-max-torn-1080p.227626/]]></link>
                <description><![CDATA[<article>
<blockquote class="messageText SelectQuoteContainer ugc baseHtml">
<img src="https://i.imgur.com/tHemLVS.jpg" class="bbCodeImage LbImage" alt="[​IMG]" data-url="https://i.imgur.com/tHemLVS.jpg" style=""><br>
<br>
<div class="bbCodeBlock bbCodeCode">
<div class="type">Code:</div>
<pre>General
Complete name                  : C:\Users\asus\Desktop\Ava Max - Torn.mp4
Format                         : MPEG-4
Format profile                 : Base Media
Codec ID                       : isom (isom/iso2/avc1/mp41)
File size                      : 241 MiB
Duration                       : 3 min 22 s
Overall bit rate               : 9 991 kb/s
Frame rate                     : 25.000 FPS
Movie name                     : Torn
Performer                      : Ava Max
Genre                          : Pop
ContentType                    : Music Video
Recorded date                  : 2019-08-27 07:00:00 UTC
Writing application            : Lavf57.29.101
Copyright                      : ℗ 2019 Atlantic Recording Corporation / Artist Partner Group, Inc. for the United States and WEA International for the world. A Warner Music Group Company.

Video
ID                             : 1
Format                         : AVC
Format/Info                    : Advanced Video Codec
Format profile                 : High@L4
Format settings                : CABAC / 5 Ref Frames
Format settings, CABAC         : Yes
Format settings, Reference fra : 5 frames
Codec ID                       : avc1
Codec ID/Info                  : Advanced Video Coding
Duration                       : 3 min 22 s
Bit rate                       : 9 731 kb/s
Width                          : 1 920 pixels
Height                         : 864 pixels
Display aspect ratio           : 2.222
Frame rate mode                : Constant
Frame rate                     : 25.000 FPS
Color space                    : YUV
Chroma subsampling             : 4:2:0
Bit depth                      : 8 bits
Scan type                      : Progressive
Bits/(Pixel*Frame)             : 0.235
Stream size                    : 235 MiB (97%)
Color range                    : Limited
Color primaries                : BT.709
Transfer characteristics       : BT.709
Matrix coefficients            : BT.709
Codec configuration box        : avcC

Audio
ID                             : 2
Format                         : AAC LC
Format/Info                    : Advanced Audio Codec Low Complexity
Codec ID                       : mp4a-40-2
Duration                       : 3 min 22 s
Bit rate mode                  : Constant
Bit rate                       : 257 kb/s
Channel(s)                     : 2 channels
Channel layout                 : L R
Sampling rate                  : 48.0 kHz
Frame rate                     : 46.875 FPS (1024 SPF)
Compression mode               : Lossy
Stream size                    : 6.21 MiB (3%)
Default                        : Yes
Alternate group                : 1

</pre>
</div>
<div class="bbCodeBlock bbCodeVfcHH HiddenContent">
<div class="attribution type">Hidden Content:</div>
<blockquote>You must either reply or click 'Like' to see the hidden information contained here.</blockquote>
</div>
<div class="messageTextEndMarker">&nbsp;</div>
</blockquote>
</article>]]></description>
                <author><![CDATA[vitalya3]]></author>
                </item>

                
                <item>
                <title><![CDATA[【Unreleased/Unofficial (lossy)】MP3 - Backstreet Boys - The Best Of (2001) - FAN MADE]]></title>
                <link><![CDATA[https://sharemania.us/threads/backstreet-boys-the-best-of-2001-fan-made.227628/]]></link>
                <description><![CDATA[<article>
<blockquote class="messageText SelectQuoteContainer ugc baseHtml">
<img src="https://blogger.googleusercontent.com/img/b/R29vZ2xl/AVvXsEh0AU9bdCTPScKhmveSnNBHgeCzpwDzvsx1T1ZVwW2fKY5LOgJHcdl0yS86unwIZMvPmnVtyurjPlstOp4fzw2NbVlTyZTgr0POJGtU-7BGb0VjnPRvjmY5vnNnzsTtJqm4TrsCelaa87OI8LToMBFGhSxGF6DHnlL4YRzduCg8efpqA7GkZw_m0EGggtI/s500/The%20Best%20Of%20(Capa).jpg" class="bbCodeImage LbImage" alt="[​IMG]" data-url="https://blogger.googleusercontent.com/img/b/R29vZ2xl/AVvXsEh0AU9bdCTPScKhmveSnNBHgeCzpwDzvsx1T1ZVwW2fKY5LOgJHcdl0yS86unwIZMvPmnVtyurjPlstOp4fzw2NbVlTyZTgr0POJGtU-7BGb0VjnPRvjmY5vnNnzsTtJqm4TrsCelaa87OI8LToMBFGhSxGF6DHnlL4YRzduCg8efpqA7GkZw_m0EGggtI/s500/The%20Best%20Of%20(Capa).jpg" style=""><br>
<br>
01 We've Got It Goin' On<br>
02 I'll Never Break Your Heart (Radio Edit)<br>
03 Get Down (You're The One For Me)<br>
04 Quit Playing Games (With My Heart) (Video Version)<br>
05 Boys Will Be Boys<br>
06 Anywhere For You<br>
07 Let's Have A Party<br>
08 Everybody (Backstreet's Back)<br>
09 As Long As You Love Me<br>
10 All I Have To Give<br>
11 That's The Way I Like It<br>
12 If You Want It To Be Good Girl (Get Yourself A Bad Boy) (Radio Edit)<br>
13 I Want It That Way<br>
14 Larger Than Life (Video Mix)<br>
15 Show Me The Meaning Of Being Lonely<br>
16 The One<br>
17 Shape Of My Heart<br>
18 The Call (Extended Video Version)<br>
19 More Than That<br>
20 Drowning<br>
<br>
<div class="bbCodeBlock bbCodeVfcHH HiddenContent">
<div class="attribution type">Hidden Content:</div>
<blockquote>You must either reply or click 'Like' to see the hidden information contained here.</blockquote>
</div>
<div class="messageTextEndMarker">&nbsp;</div>
</blockquote>
</article>]]></description>
                <author><![CDATA[Robert Forever]]></author>
                </item>

                </channel></rss>